<?xml version="1.0" encoding="iso-8859-1"?>
<!-- Generator: Adobe Illustrator 16.0.0, SVG Export Plug-In . SVG Version: 6.00 Build 0)  -->
<!DOCTYPE svg PUBLIC "-//W3C//DTD SVG 1.1//EN" "http://www.w3.org/Graphics/SVG/1.1/DTD/svg11.dtd">
<svg version="1.1" id="Capa_1" xmlns="http://www.w3.org/2000/svg" xmlns:xlink="http://www.w3.org/1999/xlink" x="0px" y="0px"
	 width="547.842px" height="547.842px" viewBox="0 0 547.842 547.842" style="enable-background:new 0 0 547.842 547.842;"
	 xml:space="preserve">
<g>
	<path d="M506.367,293.097h-43.836c-11.092,0-20.043,8.874-20.426,19.813c-9.104,84.609-80.707,150.476-167.84,150.476
		c-93.253,0-168.759-75.429-168.759-168.529c0-92.258,76.041-167.229,168.071-168.529v27.387c0,12.47,8.874,18.054,19.737,12.47
		l140.684-71.986c10.863-5.585,10.863-14.612,0-20.196L293.314,2.168c-10.863-5.584-19.737,0-19.737,12.393v27.616
		C134.882,43.478,21.127,156.239,21.127,295.01c0,139.612,113.296,252.832,253.139,252.832
		c133.723,0,243.27-103.504,252.449-234.778C526.791,302.048,517.535,293.097,506.367,293.097z"/>
</g>
<g>
</g>
<g>
</g>
<g>
</g>
<g>
</g>
<g>
</g>
<g>
</g>
<g>
</g>
<g>
</g>
<g>
</g>
<g>
</g>
<g>
</g>
<g>
</g>
<g>
</g>
<g>
</g>
<g>
</g>
</svg>
